<svg xmlns="http://www.w3.org/2000/svg" xmlns:xlink="http://www.w3.org/1999/xlink" version="1.1" x="0px" y="0px" viewBox="0 0 96 120" style="enable-background:new 0 0 96 96;" xml:space="preserve"><g><path d="M48,46c-4.418,0-8,3.582-8,8c0,4.418,3.582,8,8,8c4.418,0,8-3.582,8-8C56,49.582,52.418,46,48,46z M48,59   c-2.761,0-5-2.239-5-5c0-2.762,2.239-5,5-5c2.762,0,5,2.238,5,5C53,56.761,50.761,59,48,59z"/><path d="M82.207,41.768c0.016-0.369,0.028-0.74,0.028-1.114C82.235,27.038,71.188,16,57.56,16c-9.869,0-18.381,5.791-22.327,14.155   c-2.192-1.563-4.9-2.489-7.832-2.489c-7.295,0-13.208,5.717-13.208,12.768c0,1.047,0.133,2.063,0.379,3.036   C6.251,45.242,0,52.768,0,61.786C0,72.12,8.208,80,18.333,80h60.123C88.145,80,96,71.726,96,60.906   C96,51.524,90.093,43.687,82.207,41.768z M62,55c0,0.552-0.448,1-1,1h-1.18c-0.13,0.771-0.332,1.515-0.601,2.229l1,0.582   c0.477,0.278,0.639,0.89,0.361,1.367l-1.006,1.729c-0.278,0.477-0.89,0.639-1.367,0.361l-0.997-0.58   c-0.478,0.571-1.005,1.1-1.579,1.574l0.576,0.999c0.276,0.478,0.112,1.09-0.366,1.366l-1.732,1   c-0.478,0.276-1.09,0.112-1.366-0.366l-0.585-1.014c-0.692,0.256-1.412,0.45-2.157,0.575V67c0,0.552-0.448,1-1,1h-2   c-0.552,0-1-0.448-1-1v-1.18c-0.774-0.13-1.521-0.334-2.237-0.604l-0.597,1.026c-0.278,0.477-0.89,0.639-1.367,0.361l-1.729-1.006   c-0.477-0.278-0.639-0.89-0.361-1.367l0.597-1.025c-0.567-0.474-1.091-0.997-1.562-1.567l-1.027,0.593   c-0.478,0.276-1.09,0.112-1.366-0.366l-1-1.732c-0.276-0.478-0.112-1.09,0.366-1.366l1.04-0.6C36.5,57.471,36.306,56.748,36.18,56   H35c-0.552,0-1-0.448-1-1v-2c0-0.552,0.448-1,1-1h1.18c0.128-0.763,0.328-1.5,0.593-2.207l-1.038-0.604   c-0.477-0.278-0.639-0.89-0.361-1.367l1.006-1.729c0.278-0.477,0.89-0.639,1.367-0.361l1.026,0.597   c0.473-0.568,0.997-1.092,1.565-1.564l-0.592-1.026c-0.276-0.478-0.112-1.09,0.366-1.366l1.732-1   c0.478-0.276,1.09-0.112,1.366,0.366l0.593,1.028c0.703-0.263,1.436-0.461,2.194-0.589V41c0-0.552,0.448-1,1-1h2   c0.552,0,1,0.448,1,1v1.18c0.76,0.128,1.495,0.327,2.199,0.59l0.589-1.012c0.278-0.477,0.89-0.639,1.367-0.361l1.729,1.006   c0.477,0.278,0.639,0.89,0.361,1.367l-0.581,0.998c0.573,0.476,1.101,1.004,1.576,1.577l0.997-0.575   c0.478-0.276,1.09-0.112,1.366,0.366l1,1.732c0.276,0.478,0.112,1.09-0.366,1.366l-1.002,0.578   c0.261,0.701,0.459,1.431,0.586,2.187H61c0.552,0,1,0.448,1,1V55z"/></g></svg>
